{"title":"Baat Ek Raat Ki 1962 X264 AAC [RRG DBB][DADA] ClassiC","uid":8176200,"size":684962882,"categoryP":"video","categoryS":"movies","magnet":"?xt=urn:btih:e3f4d9871aac25ac37bf2c8fcf77c65f9a86721b&amp;dn=Baat+Ek+Raat+Ki+1962+X264+AAC+%5BRRG+DBB%5D%5BDADA%5D+ClassiC&amp;tr=udp%3A%2F%2Ftracker.openbittorrent.com%3A80&amp;tr=udp%3A%2F%2Fopen.demonii.com%3A1337&amp;tr=udp%3A%2F%2Ftracker.coppersurfer.tk%3A6969&amp;tr=udp%3A%2F%2Fexodus.desync.com%3A6969","seeders":0,"leechers":4,"uploader":"brego45","files":1,"time":1361539178,"description":"\nCover \n\n &lt;a href=&quot;\nhttp://yankoimages.net/1v85f84mph5r/Baat.Ek.Raat.Ki.Movie.1962.X264.AAC.RRG.DADA.jpg.html&quot; rel=&quot;nofollow&quot; target=&quot;_NEW&quot;&gt;\nhttp://yankoimages.net/1v85f84mph5r/Baat.Ek.Raat.Ki.Movie.1962.X264.AAC.RRG.DADA.jpg.html&lt;/a&gt;\n\nScreens\n\n &lt;a href=&quot;\nhttp://yankoimages.net/k5g4ovchokp6/Baat.Ek.Raat.Ki.Movie.1962.X264.AAC.RRG.DADA.DBBIANS.Com_thumbs.jpg.html&quot; rel=&quot;nofollow&quot; target=&quot;_NEW&quot;&gt;\nhttp://yankoimages.net/k5g4ovchokp6/Baat.Ek.Raat.Ki.Movie.1962.X264.AAC.RRG.DADA.DBBIANS.Com_thumbs.jpg.html&lt;/a&gt;\n &lt;a href=&quot;\nhttp://www.imdb.com/title/tt0055767&quot; rel=&quot;nofollow&quot; target=&quot;_NEW&quot;&gt;\nhttp://www.imdb.com/title/tt0055767&lt;/a&gt;\n\nGeneral\n\nFormat                           : MP4 Video\nFile size                        : 653 MiB\nDuration                         : 2h 25mn\nOverall bit rate                 : 629 Kbps\n\nVideo\nFormat                           : AVC\nFormat/Info                      : Advanced Video Codec\nFormat profile                   : &lt;a class=&quot;__cf_email__&quot; href=&quot;/cdn-cgi/l/email-protection&quot; data-cfemail=&quot;feb39f9790beb2cdd0ce&quot;&gt;[email&amp;#160;protected]&lt;/a&gt;&lt;script cf-hash='f9e31' type=&quot;text/javascript&quot;&gt;\n/* &lt;![CDATA[ */!function(){try{var t=&quot;currentScript&quot;in document?document.currentScript:function(){for(var t=document.getElementsByTagName(&quot;script&quot;),e=t.length;e--;)if(t[e].getAttribute(&quot;cf-hash&quot;))return t[e]}();if(t&amp;&amp;t.previousSibling){var e,r,n,i,c=t.previousSibling,a=c.getAttribute(&quot;data-cfemail&quot;);if(a){for(e=&quot;&quot;,r=parseInt(a.substr(0,2),16),n=2;a.length-n;n+=2)i=parseInt(a.substr(n,2),16)^r,e+=String.fromCharCode(i);e=document.createTextNode(e),c.parentNode.replaceChild(e,c)}}}catch(u){}}();/* ]]&gt; */&lt;/script&gt;\nFormat settings, CABAC           : Yes\nFormat settings, ReFrames        : 3 frames\nDuration                         : 2h 25mn\nBit rate                         : 492 Kbps\nWidth                            : 640 pixels\nHeight                           : 480 pixels\nDisplay aspect ratio             : 4:3\nFrame rate mode                  : Constant\nFrame rate                       : 25.000 fps\nColor space                      : YUV\nChroma subsampling               : 4:2:0\nBit depth                        : 8 bits\nScan type                        : Progressive\nBits/(Pixel*Frame)               : 0.064\nStream size                      : 511 MiB (78%)\n\nAudio\nFormat                           : AAC\nFormat/Info                      : Advanced Audio Codec\nFormat version                   : Version 4\nFormat profile                   : LC\nFormat settings, SBR             : No\nDuration                         : 2h 25mn\nBit rate                         : 129 Kbps\nChannel(s)                       : 2 channels\nChannel positions                : Front: L R\nSampling rate                    : 44.1 KHz\nBit depth                        : 16 bits\nStream size                      : 134 MiB (20%)\n","torrent":{"xt":"urn:btih:e3f4d9871aac25ac37bf2c8fcf77c65f9a86721b","amp;dn":"Baat+Ek+Raat+Ki+1962+X264+AAC+%5BRRG+DBB%5D%5BDADA%5D+ClassiC","amp;tr":["udp%3A%2F%2Ftracker.openbittorrent.com%3A80","udp%3A%2F%2Fopen.demonii.com%3A1337","udp%3A%2F%2Ftracker.coppersurfer.tk%3A6969","udp%3A%2F%2Fexodus.desync.com%3A6969"],"infoHash":"e3f4d9871aac25ac37bf2c8fcf77c65f9a86721b","infoHashBuffer":{"type":"Buffer","data":[227,244,217,135,26,172,37,172,55,191,44,143,207,119,198,95,154,134,114,27]},"announce":[],"urlList":[]}}